Coordinates
version=1
nRows=38
nColumns=38
inDegrees=no

Units are S.I. units (second, meters, Newtons, ...)
If the header above contains a line with 'inDegrees', this indicates whether rotational values are in degrees (yes) or radians (no).

endheader
time	pelvis_tilt	pelvis_list	pelvis_rotation	pelvis_tx	pelvis_ty	pelvis_tz	hip_flexion_r	hip_adduction_r	hip_rotation_r	knee_angle_r	ankle_angle_r	subtalar_angle_r	mtp_angle_r	hip_flexion_l	hip_adduction_l	hip_rotation_l	knee_angle_l	ankle_angle_l	subtalar_angle_l	mtp_angle_l	lumbar_extension	lumbar_bending	lumbar_rotation	arm_flex_r	arm_add_r	arm_rot_r	elbow_flex_r	pro_sup_r	wrist_flex_r	wrist_dev_r	arm_flex_l	arm_add_l	arm_rot_l	elbow_flex_l	pro_sup_l	wrist_flex_l	wrist_dev_l
5	2.69326	1.4619	-1.05348	0.653072	1.73763	0.92279	-0.275971	0.0721481	-0.0418119	0.567402	-0.177202	0	0	0.287257	-0.0243974	0.0741003	0.393325	-0.378423	0	0	-0.213252	0.0333311	-0.0210489	0.301228	-0.348265	0.0739523	1.72995	1.5708	0	0	0.363345	-0.356337	0.0926507	1.65721	1.5708	0	0
5.01	2.71892	1.4637	-1.07516	0.650664	1.74535	0.923038	-0.275435	0.0661217	-0.0360358	0.583875	-0.187553	0	0	0.282765	-0.0170903	0.0763398	0.400053	-0.374576	0	0	-0.212521	0.0310251	-0.0247931	0.291892	-0.352444	0.0682046	1.73714	1.5708	0	0	0.357726	-0.354868	0.0955027	1.66417	1.5708	0	0
5.02	2.73679	1.4674	-1.08885	0.648167	1.75295	0.923139	-0.270105	0.0597805	-0.0277218	0.606733	-0.201018	0	0	0.282186	-0.00893862	0.0783335	0.409957	-0.365348	0	0	-0.210155	0.028842	-0.027007	0.280282	-0.355911	0.0573229	1.74438	1.5708	0	0	0.353171	-0.352491	0.100427	1.67047	1.5708	0	0
5.03	2.72429	1.47706	-1.07189	0.645723	1.76061	0.92291	-0.256427	0.0532132	-0.00911569	0.634394	-0.214	0	0	0.289769	-0.000360825	0.0806355	0.42213	-0.351609	0	0	-0.197987	0.0250098	-0.0282115	0.264327	-0.361633	0.0490371	1.75299	1.5708	0	0	0.349308	-0.349481	0.109404	1.6721	1.5708	0	0
5.04	2.73292	1.48242	-1.07569	0.643313	1.768	0.92317	-0.248549	0.0467435	0.0186133	0.659947	-0.226386	0	0	0.29045	0.00766404	0.0822322	0.430596	-0.343663	0	0	-0.192821	0.0225793	-0.0313824	0.25229	-0.363465	0.0382942	1.75734	1.5708	0	0	0.344619	-0.34763	0.115024	1.67618	1.5708	0	0
5.05	2.76968	1.48266	-1.10943	0.64106	1.77512	0.924059	-0.243494	0.0401317	0.0313081	0.684739	-0.244116	0	0	0.282056	0.0141782	0.0811888	0.433727	-0.336934	0	0	-0.194255	0.0195593	-0.0334149	0.243004	-0.366763	0.031441	1.76199	1.5708	0	0	0.341386	-0.34581	0.120084	1.67994	1.5708	0	0
5.06	2.80719	1.48326	-1.14223	0.63883	1.78238	0.925037	-0.237224	0.0334321	0.0339723	0.708534	-0.263519	0	0	0.271523	0.0206297	0.0820079	0.432543	-0.330817	0	0	-0.194845	0.0156172	-0.0369353	0.232495	-0.370935	0.0266554	1.76828	1.5708	0	0	0.338041	-0.34437	0.125651	1.68367	1.5708	0	0
5.07	2.85329	1.48166	-1.18714	0.636868	1.78923	0.926169	-0.230101	0.0256871	0.0363191	0.736025	-0.286402	0	0	0.257032	0.0254717	0.0796282	0.428211	-0.324493	0	0	-0.199761	0.0119649	-0.0363025	0.223532	-0.374431	0.0186986	1.77419	1.5708	0	0	0.336776	-0.342503	0.131456	1.68773	1.5708	0	0
5.08	2.88428	1.4828	-1.2153	0.634897	1.79617	0.927043	-0.218695	0.018228	0.0346264	0.764511	-0.313719	0	0	0.246061	0.030401	0.0802546	0.423892	-0.318626	0	0	-0.200705	0.00868856	-0.0370821	0.213274	-0.377113	0.0103117	1.77977	1.5708	0	0	0.334928	-0.34106	0.137666	1.69122	1.5708	0	0
5.09	2.89964	1.48742	-1.22473	0.632847	1.80328	0.927623	-0.203258	0.0112334	0.0282649	0.792603	-0.342115	0	0	0.240165	0.0356283	0.0848928	0.420753	-0.313748	0	0	-0.196319	0.00636436	-0.0407187	0.201271	-0.378664	0.00186543	1.78487	1.5708	0	0	0.331764	-0.339884	0.14391	1.69338	1.5708	0	0
5.1	2.91402	1.49086	-1.23553	0.631031	1.81	0.928256	-0.186885	0.00448231	0.0240116	0.822462	-0.370245	0	0	0.233964	0.0392983	0.0877129	0.418051	-0.309355	0	0	-0.194069	0.00443802	-0.0425026	0.19125	-0.380371	-0.00571399	1.78959	1.5708	0	0	0.329587	-0.338685	0.149462	1.69561	1.5708	0	0
5.11	2.93482	1.49285	-1.25536	0.629418	1.81627	0.928962	-0.169594	-0.00267111	0.0213215	0.854603	-0.397093	0	0	0.226487	0.0420765	0.088478	0.415073	-0.305435	0	0	-0.194734	0.00245226	-0.0424422	0.183738	-0.382593	-0.0120907	1.7942	1.5708	0	0	0.328006	-0.337497	0.15406	1.6987	1.5708	0	0
5.12	2.9617	1.49316	-1.28233	0.627903	1.82221	0.929715	-0.152583	-0.00989394	0.0185426	0.887766	-0.418872	0	0	0.21705	0.0444018	0.0876796	0.41132	-0.302138	0	0	-0.195058	0.000590713	-0.0435655	0.180782	-0.384131	-0.0141849	1.79317	1.5708	0	0	0.326012	-0.336807	0.157057	1.69922	1.5708	0	0
5.13	2.98462	1.49419	-1.30349	0.626343	1.8282	0.930416	-0.134324	-0.0171341	0.0116944	0.920677	-0.4404	0	0	0.207742	0.0470207	0.0880111	0.406208	-0.299314	0	0	-0.194308	-0.00103467	-0.0465701	0.177517	-0.385281	-0.0161394	1.79202	1.5708	0	0	0.323512	-0.336311	0.159709	1.69998	1.5708	0	0
5.14	3.01047	1.49384	-1.32953	0.624944	1.83383	0.931183	-0.115847	-0.0243175	0.00674849	0.954441	-0.460941	0	0	0.196392	0.0491921	0.0861095	0.399557	-0.296744	0	0	-0.196061	-0.00252654	-0.0481122	0.176375	-0.387054	-0.0171316	1.79082	1.5708	0	0	0.322051	-0.335781	0.161707	1.70102	1.5708	0	0
5.15	3.03649	1.4934	-1.35312	0.623328	1.83951	0.931913	-0.0983875	-0.0315191	-0.00215172	0.985539	-0.480928	0	0	0.184676	0.0521493	0.0865636	0.392485	-0.294714	0	0	-0.197816	-0.00347738	-0.052327	0.175092	-0.388652	-0.0181521	1.78993	1.5708	0	0	0.320348	-0.335558	0.163504	1.70243	1.5708	0	0
5.16	3.12481	1.47834	-1.42965	0.620105	1.84581	0.933686	-0.0836114	-0.0580446	-0.146574	1.01851	-0.547519	0	0	0.153178	0.0611634	0.0936839	0.380242	-0.292603	0	0	-0.214264	-0.00514115	-0.0646648	0.173826	-0.39179	-0.0207941	1.79008	1.5708	0	0	0.32159	-0.334205	0.167341	1.70249	1.5708	0	0
5.17	3.1214	1.47214	-1.43061	0.618904	1.85058	0.93492	-0.0679743	-0.0632407	-0.146085	1.04967	-0.570063	0	0	0.135318	0.0600042	0.0878673	0.370791	-0.290572	0	0	-0.224593	-0.00304597	-0.062379	0.177637	-0.395413	-0.0207953	1.78946	1.5708	0	0	0.3227	-0.332406	0.167778	1.70447	1.5708	0	0
5.18	3.12105	1.45847	-1.43285	0.617686	1.85514	0.936268	-0.0622844	-0.0669734	-0.146635	1.07741	-0.587643	0	0	0.109706	0.0578861	0.0816528	0.361722	-0.286525	0	0	-0.213142	0.00141491	-0.0998726	0.235669	-0.389467	0.0501734	1.71853	1.5708	0	0	0.295614	-0.34338	0.133757	1.6895	1.5708	0	0
5.19	3.11627	1.46381	-1.42697	0.616533	1.86028	0.936935	-0.0374652	-0.0706505	-0.146322	1.1051	-0.576649	0	0	0.10446	0.058792	0.0840837	0.351938	-0.287123	0	0	-0.238187	-0.000295663	-0.062582	0.181446	-0.40087	-0.0226704	1.78658	1.5708	0	0	0.327024	-0.329602	0.172573	1.70414	1.5708	0	0
5.2	3.11171	1.46074	-1.42115	0.615232	1.86501	0.937821	-0.0227169	-0.0734514	-0.146286	1.12949	-0.557386	0	0	0.0910664	0.0582123	0.0844207	0.343498	-0.2861	0	0	-0.242867	0.00123507	-0.0644692	0.183388	-0.403455	-0.0230241	1.78365	1.5708	0	0	0.329428	-0.327993	0.175202	1.70247	1.5708	0	0
5.21	3.10157	1.45679	-1.40939	0.61399	1.86961	0.938816	-0.00934669	-0.0753267	-0.147265	1.14995	-0.539861	0	0	0.0774767	0.0565374	0.0848742	0.335899	-0.285327	0	0	-0.247943	0.00365551	-0.0667986	0.186413	-0.406076	-0.0221866	1.77932	1.5708	0	0	0.332117	-0.32643	0.177731	1.69971	1.5708	0	0
5.22	3.08626	1.45362	-1.39212	0.612773	1.87415	0.939725	0.00449555	-0.0759243	-0.147738	1.16599	-0.537347	0	0	0.0656699	0.054165	0.0852718	0.329906	-0.283661	0	0	-0.253019	0.0069344	-0.0696441	0.189259	-0.408381	-0.0216079	1.77638	1.5708	0	0	0.333828	-0.32483	0.179001	1.69874	1.5708	0	0
5.23	3.08155	1.44576	-1.38369	0.611604	1.87862	0.940888	0.0118314	-0.0758531	-0.148602	1.17985	-0.499339	0	0	0.0476844	0.0518677	0.0876216	0.320982	-0.283233	0	0	-0.263231	0.00970632	-0.073236	0.191995	-0.409886	-0.0226153	1.7739	1.5708	0	0	0.337931	-0.323733	0.181711	1.69722	1.5708	0	0
5.24	3.07131	1.44033	-1.36868	0.610426	1.88316	0.941812	0.0215585	-0.0749313	-0.149337	1.18961	-0.482709	0	0	0.0335985	0.0490941	0.0903419	0.314634	-0.281731	0	0	-0.269674	0.0132343	-0.0781734	0.19461	-0.411242	-0.0223	1.77039	1.5708	0	0	0.340691	-0.322742	0.183769	1.69504	1.5708	0	0
5.25	3.04834	1.44045	-1.344	0.609404	1.88732	0.942386	0.0386411	-0.0754812	-0.152287	1.19634	-0.468374	0	0	0.0266236	0.0462042	0.093081	0.309343	-0.280542	0	0	-0.270954	0.0173462	-0.080636	0.197934	-0.413079	-0.0212039	1.76669	1.5708	0	0	0.342187	-0.320887	0.18439	1.69321	1.5708	0	0
5.26	2.9775	1.44759	-1.27674	0.60822	1.89057	0.9431	0.0503432	-0.0790326	-0.176948	1.16542	-0.449548	0	0	0.0293945	0.040648	0.0973392	0.303347	-0.280868	0	0	-0.266751	0.0267298	-0.0785909	0.203462	-0.417204	-0.0186104	1.76278	1.5708	0	0	0.341755	-0.316099	0.182333	1.69148	1.5708	0	0
5.27	2.95797	1.44652	-1.25493	0.607279	1.89475	0.943656	0.0648208	-0.0760382	-0.172446	1.16568	-0.431292	0	0	0.0212469	0.0378781	0.0996574	0.297977	-0.279512	0	0	-0.269179	0.0302642	-0.0808374	0.206935	-0.422199	-0.0169487	1.758	1.5708	0	0	0.344558	-0.314329	0.183825	1.68946	1.5708	0	0
5.28	2.93964	1.44522	-1.23417	0.606383	1.89891	0.944226	0.0785346	-0.0730071	-0.167752	1.16228	-0.429199	0	0	0.0131813	0.0349455	0.101526	0.292982	-0.278604	0	0	-0.27208	0.0339194	-0.0833398	0.208806	-0.420343	-0.0184994	1.75747	1.5708	0	0	0.347016	-0.312652	0.184885	1.688	1.5708	0	0
5.29	2.91986	1.44562	-1.21292	0.605556	1.90297	0.944542	0.0942007	-0.0701548	-0.161654	1.15911	-0.390684	0	0	0.00723963	0.0325766	0.103856	0.288161	-0.275775	0	0	-0.272895	0.036895	-0.0854222	0.212314	-0.421894	-0.0177493	1.75418	1.5708	0	0	0.349026	-0.311014	0.185623	1.68665	1.5708	0	0
5.3	2.89856	1.44566	-1.19041	0.604812	1.90692	0.944871	0.10917	-0.0674106	-0.156516	1.15202	-0.373501	0	0	0.00170493	0.0298254	0.105758	0.284452	-0.273555	0	0	-0.274258	0.0400407	-0.0869687	0.215934	-0.423195	-0.0175053	1.75115	1.5708	0	0	0.351695	-0.309198	0.186448	1.68516	1.5708	0	0
5.31	2.87919	1.44571	-1.17033	0.604144	1.91083	0.945199	0.123478	-0.0650009	-0.150956	1.14198	-0.351776	0	0	-0.00457706	0.0273807	0.109525	0.278862	-0.269803	0	0	-0.275744	0.0428631	-0.0884924	0.220231	-0.424337	-0.0163848	1.7478	1.5708	0	0	0.353966	-0.307558	0.186435	1.68402	1.5708	0	0
5.32	2.85908	1.44478	-1.14996	0.603549	1.91467	0.94543	0.136854	-0.0625793	-0.146712	1.13008	-0.336892	0	0	-0.0131282	0.0238124	0.114992	0.267631	-0.262939	0	0	-0.275776	0.0458335	-0.0902169	0.226463	-0.425298	-0.0127809	1.74066	1.5708	0	0	0.356504	-0.306217	0.186679	1.67981	1.5708	0	0
5.33	2.84675	1.44269	-1.13772	0.602977	1.91844	0.94579	0.148091	-0.0608543	-0.143447	1.11541	-0.323667	0	0	-0.0197137	0.0212687	0.115028	0.266574	-0.262041	0	0	-0.277654	0.0482646	-0.0916874	0.232925	-0.426074	-0.00916502	1.73377	1.5708	0	0	0.359341	-0.30499	0.18669	1.67586	1.5708	0	0
5.34	2.84258	1.44011	-1.13377	0.602441	1.92217	0.946251	0.15789	-0.0602119	-0.141284	1.09844	-0.313245	0	0	-0.0251258	0.0202051	0.112214	0.272284	-0.264182	0	0	-0.280367	0.050268	-0.0926493	0.239094	-0.426688	-0.00598636	1.72745	1.5708	0	0	0.362185	-0.302762	0.18603	1.67131	1.5708	0	0
5.35	2.83089	1.43839	-1.12255	0.602001	1.9259	0.946471	0.168724	-0.0588363	-0.139481	1.07996	-0.304336	0	0	-0.0317006	0.0180209	0.113854	0.270135	-0.261187	0	0	-0.281758	0.0526632	-0.0932739	0.245082	-0.427338	-0.00279784	1.72159	1.5708	0	0	0.364714	-0.300332	0.184785	1.66727	1.5708	0	0
5.36	2.81638	1.43796	-1.10883	0.60167	1.9296	0.946516	0.181018	-0.0575874	-0.137721	1.06073	-0.298114	0	0	-0.0360666	0.0160478	0.11495	0.269641	-0.258264	0	0	-0.28191	0.0544612	-0.0936549	0.250643	-0.427481	-9.1252e-05	1.71608	1.5708	0	0	0.366961	-0.297813	0.183154	1.66386	1.5708	0	0
5.37	2.88293	1.49259	-1.18713	0.597575	1.93131	0.940734	0.259282	-0.112966	-0.162387	1.06797	-0.282968	0	0	0.0150971	0.0611691	0.137264	0.278683	-0.250093	0	0	-0.202487	0.0287654	-0.112633	0.287656	-0.430039	0.0533245	1.65325	1.5708	0	0	0.350409	-0.293252	0.16733	1.62863	1.5708	0	0
